<svg id="egWRtXhV62G1" xmlns="http://www.w3.org/2000/svg" xmlns:xlink="http://www.w3.org/1999/xlink"
     viewBox="0 0 226 44" shape-rendering="geometricPrecision" text-rendering="geometricPrecision">
    <g transform="translate(-5.428604 28.204842)">
        <g transform="translate(29.044936-5.979839)">
            <g>
                <g>
                    <g transform="translate(5 7)">
                        <rect width="92.59" height="2" rx="0" ry="0" transform="translate(-28.616332-28.35657)"
                              fill="#ff0844"/>
                        <rect width="92.59" height="2" rx="0" ry="0" transform="translate(-28.616332 13.225)"
                              fill="#ff0844"/>
                        <g transform="translate(-28.617802-22.228304)">
                            <g>
                                <path d="M25.01,0.41v-4.95h-12.85v-24.52h-5.2v29.47h18.05Zm13.43.49c6.67,0,10.6-3.52,11.09-9c.33-3.52.28-7.95.12-11.3-.29-6.55-4.83-10.15-11.21-10.15-6.39,0-10.65,3.64-10.93,10.15-.17,3.35-.21,7.78.12,11.3.49,5.44,4.91,9,10.81,9Zm0-4.91c-2.79,0-4.96-1.23-5.37-5.08-.32-3.03-.24-7.28-.12-9.62.25-4.21,2.25-5.85,5.49-5.97c3.64,0,5.48,1.55,5.77,5.97.16,2.34.2,6.59-.13,9.62-.4,3.56-2.74,4.96-5.64,5.08Zm35.85-25.05h-5.48L62.26,-6.14l-6.39-22.92h-5.6L59.11,0.41h6.1l9.08-29.47ZM99.55,0.41v-4.91h-13.1v-7.53h11.71v-4.79h-11.71v-7.37h12.77v-4.87h-17.97v29.47h18.3Z"
                                      transform="translate(-6.95853 29.5533)" fill="#ff0844"/>
                            </g>
                        </g>
                    </g>
                </g>
                <g transform="translate(72.605008-22.225)" mask="url(#egWRtXhV62G20)">
                    <g transform="translate(5 1.999999)">
                        <g>
                            <rect width="130.71" height="44.45" rx="0" ry="0" transform="translate(-5-2)" fill="#ff0844"
                                  stroke-width="2"/>
                        </g>
                        <g transform="translate(5 7)">
                            <g>
                                <g>
                                    <path d="M2.62,-1.06C5.12,0.41,8.23,0.9,11.71,0.9c7.9,0,11.29-3.85,11.25-9c0-4.1-2.53-7.09-6.51-8.07l-4.42-1.1c-2.57-.62-3.52-1.48-3.52-3.89c0-2.05,1.48-3.52,5.41-3.52c2.13,0,4.09.37,6.18,1.59l1.64-4.7c-2.42-1.39-5.33-1.76-8.03-1.76-7,0-10.72,3.56-10.72,8.8c0,4.17,2.04,6.83,5.97,7.82l4.42,1.1c2.83.7,4.1,1.97,4.02,3.89c0,2.66-1.64,3.97-5.94,3.97-2.29,0-4.83-.45-7-1.68L2.62,-1.06Zm43.22-23.17v-4.83h-20.87l.45,4.83h7.49v24.64h5.2v-24.64h7.73ZM61.93,0.9c6.67,0,10.6-3.52,11.09-9c.33-3.52.29-7.95.13-11.3-.29-6.55-4.83-10.15-11.22-10.15-6.38,0-10.64,3.64-10.93,10.15-.16,3.35-.2,7.78.12,11.3.5,5.44,4.92,9,10.81,9Zm0-4.91c-2.78,0-4.95-1.23-5.36-5.08-.33-3.03-.25-7.28-.12-9.62.24-4.21,2.25-5.85,5.48-5.97c3.64,0,5.49,1.55,5.77,5.97.17,2.34.21,6.59-.12,9.62-.41,3.56-2.74,4.96-5.65,5.08Zm28.12-6.92l5.9,11.34h6.01L95,-11.75c2.95-.69,5.74-3.68,5.74-8.35c0-5.36-3.28-8.96-10.12-8.96h-10.31v29.47h5.2v-11.34h4.54Zm.37-13.42c3.36,0,4.91,1.47,4.91,4.25c0,3.03-1.72,4.46-5.03,4.46h-4.79v-8.71h4.91Zm32.91-4.71h-5.69l-6.1,12.4-5.97-12.4h-5.94l9,17.6v11.87h5.61v-11.99l9.09-17.48Z"
                                          transform="translate(-2.61968 29.5533)" fill="#ff0844"/>
                                </g>
                            </g>
                        </g>
                    </g>
                    <mask id="egWRtXhV62G20" mask-type="luminance" x="-150%" y="-150%" height="400%" width="400%">
                        <g>
                            <rect width="130.71" height="44.45" rx="0" ry="0" fill="#fff" stroke-width="2"/>
                        </g>
                        <g transform="translate(5 7)">
                            <g>
                                <g>
                                    <path d="M2.62,-1.06C5.12,0.41,8.23,0.9,11.71,0.9c7.9,0,11.29-3.85,11.25-9c0-4.1-2.53-7.09-6.51-8.07l-4.42-1.1c-2.57-.62-3.52-1.48-3.52-3.89c0-2.05,1.48-3.52,5.41-3.52c2.13,0,4.09.37,6.18,1.59l1.64-4.7c-2.42-1.39-5.33-1.76-8.03-1.76-7,0-10.72,3.56-10.72,8.8c0,4.17,2.04,6.83,5.97,7.82l4.42,1.1c2.83.7,4.1,1.97,4.02,3.89c0,2.66-1.64,3.97-5.94,3.97-2.29,0-4.83-.45-7-1.68L2.62,-1.06Zm43.22-23.17v-4.83h-20.87l.45,4.83h7.49v24.64h5.2v-24.64h7.73ZM61.93,0.9c6.67,0,10.6-3.52,11.09-9c.33-3.52.29-7.95.13-11.3-.29-6.55-4.83-10.15-11.22-10.15-6.38,0-10.64,3.64-10.93,10.15-.16,3.35-.2,7.78.12,11.3.5,5.44,4.92,9,10.81,9Zm0-4.91c-2.78,0-4.95-1.23-5.36-5.08-.33-3.03-.25-7.28-.12-9.62.24-4.21,2.25-5.85,5.48-5.97c3.64,0,5.49,1.55,5.77,5.97.17,2.34.21,6.59-.12,9.62-.41,3.56-2.74,4.96-5.65,5.08Zm28.12-6.92l5.9,11.34h6.01L95,-11.75c2.95-.69,5.74-3.68,5.74-8.35c0-5.36-3.28-8.96-10.12-8.96h-10.31v29.47h5.2v-11.34h4.54Zm.37-13.42c3.36,0,4.91,1.47,4.91,4.25c0,3.03-1.72,4.46-5.03,4.46h-4.79v-8.71h4.91Zm32.91-4.71h-5.69l-6.1,12.4-5.97-12.4h-5.94l9,17.6v11.87h5.61v-11.99l9.09-17.48Z"
                                          transform="translate(-2.61968 29.5533)"/>
                                </g>
                            </g>
                        </g>
                    </mask>
                </g>
            </g>
        </g>
    </g>
</svg>
